<svg xmlns="http://www.w3.org/2000/svg" viewBox="0 0 900 1100">
  <defs>
    <radialGradient id="halo" cx="50%" cy="40%" r="55%">
      <stop offset="0%" stop-color="#ff6767" stop-opacity="0.98" />
      <stop offset="40%" stop-color="#7f1111" stop-opacity="0.75" />
      <stop offset="100%" stop-color="#000000" stop-opacity="0" />
    </radialGradient>

    <linearGradient id="face-base" x1="0%" y1="0%" x2="0%" y2="100%">
      <stop offset="0%" stop-color="#d4c6be" />
      <stop offset="24%" stop-color="#8b6f68" />
      <stop offset="56%" stop-color="#2b0d10" />
      <stop offset="100%" stop-color="#090001" />
    </linearGradient>

    <radialGradient id="face-shade" cx="50%" cy="42%" r="52%">
      <stop offset="0%" stop-color="#f2ebe8" stop-opacity="0.85" />
      <stop offset="26%" stop-color="#b87979" stop-opacity="0.35" />
      <stop offset="100%" stop-color="#000000" stop-opacity="0" />
    </radialGradient>

    <radialGradient id="eye-glow" cx="50%" cy="50%" r="50%">
      <stop offset="0%" stop-color="#fff6f6" />
      <stop offset="18%" stop-color="#ff4c4c" />
      <stop offset="44%" stop-color="#6f0505" />
      <stop offset="100%" stop-color="#050000" />
    </radialGradient>

    <linearGradient id="mouth-fill" x1="0%" y1="0%" x2="0%" y2="100%">
      <stop offset="0%" stop-color="#030000" />
      <stop offset="65%" stop-color="#5d0707" />
      <stop offset="100%" stop-color="#b71414" />
    </linearGradient>

    <linearGradient id="teeth-fill" x1="0%" y1="0%" x2="0%" y2="100%">
      <stop offset="0%" stop-color="#fffdf9" />
      <stop offset="100%" stop-color="#bcb6b0" />
    </linearGradient>

    <filter id="soft-glow" x="-40%" y="-40%" width="180%" height="180%">
      <feGaussianBlur stdDeviation="18" result="blur" />
      <feMerge>
        <feMergeNode in="blur" />
        <feMergeNode in="SourceGraphic" />
      </feMerge>
    </filter>

    <filter id="deep-shadow" x="-30%" y="-30%" width="160%" height="160%">
      <feOffset dx="0" dy="20" />
      <feGaussianBlur stdDeviation="28" />
      <feColorMatrix
        type="matrix"
        values="0 0 0 0 0
                0 0 0 0 0
                0 0 0 0 0
                0 0 0 0.82 0"
      />
    </filter>
  </defs>

  <ellipse cx="450" cy="480" rx="350" ry="400" fill="url(#halo)" />

  <g filter="url(#deep-shadow)" opacity="0.78">
    <path
      d="M450 104
         C637 104 780 232 786 456
         C790 630 736 882 450 1002
         C164 882 110 630 114 456
         C120 232 263 104 450 104Z"
      fill="#100001"
    />
  </g>

  <g filter="url(#soft-glow)">
    <path
      d="M450 118
         C630 118 758 250 760 448
         C762 612 716 860 450 978
         C184 860 138 612 140 448
         C142 250 270 118 450 118Z"
      fill="url(#face-base)"
    />
    <path
      d="M450 144
         C604 144 704 260 708 432
         C712 598 676 806 450 930
         C224 806 188 598 192 432
         C196 260 296 144 450 144Z"
      fill="url(#face-shade)"
      opacity="0.65"
    />
  </g>

  <path
    d="M296 156
       C244 240 220 340 218 442
       C216 574 246 696 314 816"
    fill="none"
    stroke="#f4d9d4"
    stroke-opacity="0.24"
    stroke-width="18"
    stroke-linecap="round"
  />
  <path
    d="M604 156
       C656 240 680 340 682 442
       C684 574 654 696 586 816"
    fill="none"
    stroke="#f4d9d4"
    stroke-opacity="0.24"
    stroke-width="18"
    stroke-linecap="round"
  />

  <path
    d="M452 164 L474 290 L444 390 L504 536"
    fill="none"
    stroke="#260304"
    stroke-width="12"
    stroke-linecap="round"
    opacity="0.9"
  />
  <path
    d="M452 164 L432 302 L462 426 L392 560"
    fill="none"
    stroke="#f9d7d1"
    stroke-width="7"
    stroke-linecap="round"
    opacity="0.18"
  />

  <path
    d="M240 278 C274 208 366 182 452 198 C376 210 316 252 280 320 Z"
    fill="#140103"
    opacity="0.82"
  />
  <path
    d="M660 278 C626 208 534 182 448 198 C524 210 584 252 620 320 Z"
    fill="#140103"
    opacity="0.82"
  />

  <g filter="url(#soft-glow)">
    <path
      d="M218 404
         C278 280 416 250 514 314
         C464 388 392 446 262 462
         C228 456 214 434 218 404Z"
      fill="#050000"
    />
    <ellipse cx="354" cy="382" rx="84" ry="72" fill="url(#eye-glow)" />
    <ellipse cx="354" cy="384" rx="14" ry="72" fill="#050000" />
    <ellipse cx="354" cy="356" rx="26" ry="14" fill="#fff5f5" opacity="0.64" />

    <path
      d="M682 404
         C622 280 484 250 386 314
         C436 388 508 446 638 462
         C672 456 686 434 682 404Z"
      fill="#050000"
    />
    <ellipse cx="546" cy="382" rx="84" ry="72" fill="url(#eye-glow)" />
    <ellipse cx="546" cy="384" rx="14" ry="72" fill="#050000" />
    <ellipse cx="546" cy="356" rx="26" ry="14" fill="#fff5f5" opacity="0.64" />
  </g>

  <path
    d="M402 548 L450 462 L498 548 L474 598 L426 598 Z"
    fill="#170204"
    opacity="0.86"
  />
  <ellipse cx="428" cy="562" rx="18" ry="12" fill="#030000" opacity="0.9" />
  <ellipse cx="472" cy="562" rx="18" ry="12" fill="#030000" opacity="0.9" />

  <g filter="url(#soft-glow)">
    <path
      d="M242 664
         C286 588 390 554 450 562
         C510 554 614 588 658 664
         C666 758 586 878 450 904
         C314 878 234 758 242 664Z"
      fill="url(#mouth-fill)"
    />

    <path
      d="M282 646
         C340 604 408 592 450 598
         C492 592 560 604 618 646
         C562 630 500 626 450 630
         C400 626 338 630 282 646Z"
      fill="#f5d5d0"
      opacity="0.16"
    />

    <path
      d="M296 640 L332 734 L368 638 L402 740 L436 632 L470 744 L504 634 L538 742 L572 636 L608 734"
      fill="none"
      stroke="url(#teeth-fill)"
      stroke-width="28"
      stroke-linejoin="round"
      stroke-linecap="round"
    />

    <path
      d="M308 744 L344 824 L382 740 L420 832 L450 748 L480 832 L518 740 L556 824 L592 744"
      fill="none"
      stroke="url(#teeth-fill)"
      stroke-width="24"
      stroke-linejoin="round"
      stroke-linecap="round"
    />
  </g>

  <path
    d="M306 678 C320 734 342 770 362 796"
    fill="none"
    stroke="#620000"
    stroke-width="12"
    stroke-linecap="round"
    opacity="0.9"
  />
  <path
    d="M592 678 C578 734 556 770 536 796"
    fill="none"
    stroke="#620000"
    stroke-width="12"
    stroke-linecap="round"
    opacity="0.9"
  />
  <path
    d="M450 778 C450 820 438 860 420 890"
    fill="none"
    stroke="#8c0404"
    stroke-width="16"
    stroke-linecap="round"
    opacity="0.95"
  />

  <path
    d="M300 478 L252 592"
    fill="none"
    stroke="#efd4cd"
    stroke-width="10"
    stroke-linecap="round"
    opacity="0.16"
  />
  <path
    d="M600 478 L648 592"
    fill="none"
    stroke="#efd4cd"
    stroke-width="10"
    stroke-linecap="round"
    opacity="0.16"
  />
</svg>
